<svg xmlns="http://www.w3.org/2000/svg" viewBox="0 0 800 800">
  <!-- Fundo -->
  <rect width="800" height="800" fill="#f8f9fa"/>
  
  <!-- Título -->
  <text x="400" y="40" font-family="Arial" font-size="24" font-weight="bold" text-anchor="middle" fill="#333">Modelo Lógico - Agência de Viagens</text>
  
  <!-- Tabela CLIENTE -->
  <rect x="50" y="70" width="200" height="180" fill="#b8daff" stroke="#007bff" stroke-width="2" rx="5"/>
  <line x1="50" y1="100" x2="250" y2="100" stroke="#007bff" stroke-width="2"/>
  <text x="150" y="90" font-family="Arial" font-size="16" font-weight="bold" text-anchor="middle">CLIENTE</text>
  <text x="55" y="120" font-family="Arial" font-size="14" fill="#333">PK id_cliente</text>
  <text x="55" y="140" font-family="Arial" font-size="14" fill="#333">    nome</text>
  <text x="55" y="160" font-family="Arial" font-size="14" fill="#333">    cpf</text>
  <text x="55" y="180" font-family="Arial" font-size="14" fill="#333">    rg</text>
  <text x="55" y="200" font-family="Arial" font-size="14" fill="#333">    data_nascimento</text>
  <text x="55" y="220" font-family="Arial" font-size="14" fill="#333">    genero</text>
  <text x="55" y="240" font-family="Arial" font-size="14" fill="#333">    estado_civil</text>
  
  <!-- Tabela CONTATO -->
  <rect x="50" y="280" width="200" height="120" fill="#b8daff" stroke="#007bff" stroke-width="2" rx="5"/>
  <line x1="50" y1="310" x2="250" y2="310" stroke="#007bff" stroke-width="2"/>
  <text x="150" y="300" font-family="Arial" font-size="16" font-weight="bold" text-anchor="middle">CONTATO</text>
  <text x="55" y="330" font-family="Arial" font-size="14" fill="#333">PK id_contato</text>
  <text x="55" y="350" font-family="Arial" font-size="14" fill="#333">FK id_cliente</text>
  <text x="55" y="370" font-family="Arial" font-size="14" fill="#333">    email</text>
  <text x="55" y="390" font-family="Arial" font-size="14" fill="#333">    telefone_celular</text>
  
  <!-- Tabela ENDERECO -->
  <rect x="50" y="430" width="200" height="180" fill="#b8daff" stroke="#007bff" stroke-width="2" rx="5"/>
  <line x1="50" y1="460" x2="250" y2="460" stroke="#007bff" stroke-width="2"/>
  <text x="150" y="450" font-family="Arial" font-size="16" font-weight="bold" text-anchor="middle">ENDERECO</text>
  <text x="55" y="480" font-family="Arial" font-size="14" fill="#333">PK id_endereco</text>
  <text x="55" y="500" font-family="Arial" font-size="14" fill="#333">FK id_cliente</text>
  <text x="55" y="520" font-family="Arial" font-size="14" fill="#333">    cep</text>
  <text x="55" y="540" font-family="Arial" font-size="14" fill="#333">    estado</text>
  <text x="55" y="560" font-family="Arial" font-size="14" fill="#333">    cidade</text>
  <text x="55" y="580" font-family="Arial" font-size="14" fill="#333">    bairro</text>
  <text x="55" y="600" font-family="Arial" font-size="14" fill="#333">    logradouro</text>
  
  <!-- Tabela USUARIO -->
  <rect x="50" y="640" width="200" height="100" fill="#b8daff" stroke="#007bff" stroke-width="2" rx="5"/>
  <line x1="50" y1="670" x2="250" y2="670" stroke="#007bff" stroke-width="2"/>
  <text x="150" y="660" font-family="Arial" font-size="16" font-weight="bold" text-anchor="middle">USUARIO</text>
  <text x="55" y="690" font-family="Arial" font-size="14" fill="#333">PK id_usuario</text>
  <text x="55" y="710" font-family="Arial" font-size="14" fill="#333">FK id_cliente</text>
  <text x="55" y="730" font-family="Arial" font-size="14" fill="#333">    email</text>
  <text x="55" y="750" font-family="Arial" font-size="14" fill="#333">    senha</text>
  
  <!-- Tabela DESTINO -->
  <rect x="550" y="70" width="200" height="160" fill="#ffeeba" stroke="#ffc107" stroke-width="2" rx="5"/>
  <line x1="550" y1="100" x2="750" y2="100" stroke="#ffc107" stroke-width="2"/>
  <text x="650" y="90" font-family="Arial" font-size="16" font-weight="bold" text-anchor="middle">DESTINO</text>
  <text x="555" y="120" font-family="Arial" font-size="14" fill="#333">PK id_destino</text>
  <text x="555" y="140" font-family="Arial" font-size="14" fill="#333">    nome</text>
  <text x="555" y="160" font-family="Arial" font-size="14" fill="#333">    pais</text>
  <text x="555" y="180" font-family="Arial" font-size="14" fill="#333">    estado</text>
  <text x="555" y="200" font-family="Arial" font-size="14" fill="#333">    cidade</text>
  <text x="555" y="220" font-family="Arial" font-size="14" fill="#333">    descricao</text>
  
  <!-- Tabela PACOTE -->
  <rect x="300" y="70" width="200" height="180" fill="#c3e6cb" stroke="#28a745" stroke-width="2" rx="5"/>
  <line x1="300" y1="100" x2="500" y2="100" stroke="#28a745" stroke-width="2"/>
  <text x="400" y="90" font-family="Arial" font-size="16" font-weight="bold" text-anchor="middle">PACOTE</text>
  <text x="305" y="120" font-family="Arial" font-size="14" fill="#333">PK id_pacote</text>
  <text x="305" y="140" font-family="Arial" font-size="14" fill="#333">FK id_destino</text>
  <text x="305" y="160" font-family="Arial" font-size="14" fill="#333">    nome</text>
  <text x="305" y="180" font-family="Arial" font-size="14" fill="#333">    descricao</text>
  <text x="305" y="200" font-family="Arial" font-size="14" fill="#333">    preco</text>
  <text x="305" y="220" font-family="Arial" font-size="14" fill="#333">    duracao</text>
  <text x="305" y="240" font-family="Arial" font-size="14" fill="#333">    vagas_disponíveis</text>
  
  <!-- Tabela RESERVA -->
  <rect x="300" y="280" width="200" height="160" fill="#f5c6cb" stroke="#dc3545" stroke-width="2" rx="5"/>
  <line x1="300" y1="310" x2="500" y2="310" stroke="#dc3545" stroke-width="2"/>
  <text x="400" y="300" font-family="Arial" font-size="16" font-weight="bold" text-anchor="middle">RESERVA</text>
  <text x="305" y="330" font-family="Arial" font-size="14" fill="#333">PK id_reserva</text>
  <text x="305" y="350" font-family="Arial" font-size="14" fill="#333">FK id_cliente</text>
  <text x="305" y="370" font-family="Arial" font-size="14" fill="#333">FK id_pacote</text>
  <text x="305" y="390" font-family="Arial" font-size="14" fill="#333">    data_reserva</text>
  <text x="305" y="410" font-family="Arial" font-size="14" fill="#333">    data_viagem</text>
  <text x="305" y="430" font-family="Arial" font-size="14" fill="#333">    qtd_pessoas</text>
  <text x="305" y="450" font-family="Arial" font-size="14" fill="#333">    status</text>
  
  <!-- Tabela PAGAMENTO -->
  <rect x="300" y="470" width="200" height="160" fill="#d6d8db" stroke="#6c757d" stroke-width="2" rx="5"/>
  <line x1="300" y1="500" x2="500" y2="500" stroke="#6c757d" stroke-width="2"/>
  <text x="400" y="490" font-family="Arial" font-size="16" font-weight="bold" text-anchor="middle">PAGAMENTO</text>
  <text x="305" y="520" font-family="Arial" font-size="14" fill="#333">PK id_pagamento</text>
  <text x="305" y="540" font-family="Arial" font-size="14" fill="#333">FK id_reserva</text>
  <text x="305" y="560" font-family="Arial" font-size="14" fill="#333">    valor_total</text>
  <text x="305" y="580" font-family="Arial" font-size="14" fill="#333">    forma_pagamento</text>
  <text x="305" y="600" font-family="Arial" font-size="14" fill="#333">    status</text>
  <text x="305" y="620" font-family="Arial" font-size="14" fill="#333">    data_pagamento</text>
  
  <!-- Tabela HOTEL -->
  <rect x="550" y="280" width="200" height="160" fill="#bee5eb" stroke="#17a2b8" stroke-width="2" rx="5"/>
  <line x1="550" y1="310" x2="750" y2="310" stroke="#17a2b8" stroke-width="2"/>
  <text x="650" y="300" font-family="Arial" font-size="16" font-weight="bold" text-anchor="middle">HOTEL</text>
  <text x="555" y="330" font-family="Arial" font-size="14" fill="#333">PK id_hotel</text>
  <text x="555" y="350" font-family="Arial" font-size="14" fill="#333">FK id_destino</text>
  <text x="555" y="370" font-family="Arial" font-size="14" fill="#333">    nome</text>
  <text x="555" y="390" font-family="Arial" font-size="14" fill="#333">    categoria</text>
  <text x="555" y="410" font-family="Arial" font-size="14" fill="#333">    endereco</text>
  <text x="555" y="430" font-family="Arial" font-size="14" fill="#333">    telefone</text>
  <text x="555" y="450" font-family="Arial" font-size="14" fill="#333">    comodidades</text>
  
  <!-- Tabela ATRACAO -->
  <rect x="550" y="470" width="200" height="160" fill="#e2c8f0" stroke="#6f42c1" stroke-width="2" rx="5"/>
  <line x1="550" y1="500" x2="750" y2="500" stroke="#6f42c1" stroke-width="2"/>
  <text x="650" y="490" font-family="Arial" font-size="16" font-weight="bold" text-anchor="middle">ATRACAO</text>
  <text x="555" y="520" font-family="Arial" font-size="14" fill="#333">PK id_atracao</text>
  <text x="555" y="540" font-family="Arial" font-size="14" fill="#333">FK id_destino</text>
  <text x="555" y="560" font-family="Arial" font-size="14" fill="#333">    nome</text>
  <text x="555" y="580" font-family="Arial" font-size="14" fill="#333">    descricao</text>
  <text x="555" y="600" font-family="Arial" font-size="14" fill="#333">    tipo</text>
  <text x="555" y="620" font-family="Arial" font-size="14" fill="#333">    preco</text>
  
  <!-- Tabela PACOTE_HOTEL -->
  <rect x="300" y="660" width="200" height="100" fill="#dfc1f7" stroke="#8540c9" stroke-width="2" rx="5"/>
  <line x1="300" y1="690" x2="500" y2="690" stroke="#8540c9" stroke-width="2"/>
  <text x="400" y="680" font-family="Arial" font-size="16" font-weight="bold" text-anchor="middle">PACOTE_HOTEL</text>
  <text x="305" y="710" font-family="Arial" font-size="14" fill="#333">PK id_pacote_hotel</text>
  <text x="305" y="730" font-family="Arial" font-size="14" fill="#333">FK id_pacote</text>
  <text x="305" y="750" font-family="Arial" font-size="14" fill="#333">FK id_hotel</text>
  
  <!-- Tabela PACOTE_ATRACAO -->
  <rect x="550" y="660" width="200" height="100" fill="#dfc1f7" stroke="#8540c9" stroke-width="2" rx="5"/>
  <line x1="550" y1="690" x2="750" y2="690" stroke="#8540c9" stroke-width="2"/>
  <text x="650" y="680" font-family="Arial" font-size="16" font-weight="bold" text-anchor="middle">PACOTE_ATRACAO</text>
  <text x="555" y="710" font-family="Arial" font-size="14" fill="#333">PK id_pacote_atracao</text>
  <text x="555" y="730" font-family="Arial" font-size="14" fill="#333">FK id_pacote</text>
  <text x="555" y="750" font-family="Arial" font-size="14" fill="#333">FK id_atracao</text>
  
  <!-- Relacionamentos -->
  <!-- Cliente-Contato -->
  <line x1="150" y1="250" x2="150" y2="280" stroke="#007bff" stroke-width="2"/>
  <polygon points="154,276 146,276 150,280" fill="#007bff" stroke="#007bff" stroke-width="1"/>
  
  <!-- Cliente-Endereco -->
  <line x1="150" y1="400" x2="150" y2="430" stroke="#007bff" stroke-width="2"/>
  <polygon points="154,426 146,426 150,430" fill="#007bff" stroke="#007bff" stroke-width="1"/>
  
  <!-- Cliente-Usuario -->
  <line x1="150" y1="610" x2="150" y2="640" stroke="#007bff" stroke-width="2"/>
  <polygon points="154,636 146,636 150,640" fill="#007bff" stroke="#007bff" stroke-width="1"/>
  
  <!-- Cliente-Reserva -->
  <line x1="250" y1="150" x2="300" y2="350" stroke="#dc3545" stroke-width="2"/>
  <polygon points="296,346 304,346 300,350" fill="#dc3545" stroke="#dc3545" stroke-width="1"/>
  
  <!-- Pacote-Reserva -->
  <line x1="400" y1="250" x2="400" y2="280" stroke="#dc3545" stroke-width="2"/>
  <polygon points="404,276 396,276 400,280" fill="#dc3545" stroke="#dc3545" stroke-width="1"/>
  
  <!-- Destino-Pacote -->
  <line x1="550" y1="140" x2="500" y2="140" stroke="#28a745" stroke-width="2"/>
  <polygon points="504,144 496,144 500,140" fill="#28a745" stroke="#28a745" stroke-width="1"/>
  
  <!-- Reserva-Pagamento -->
  <line x1="400" y1="440" x2="400" y2="470" stroke="#6c757d" stroke-width="2"/>
  <polygon points="404,466 396,466 400,470" fill="#6c757d" stroke="#6c757d" stroke-width="1"/>
  
  <!-- Destino-Hotel -->
  <line x1="650" y1="230" x2="650" y2="280" stroke="#17a2b8" stroke-width="2"/>
  <polygon points="654,276 646,276 650,280" fill="#17a2b8" stroke="#17a2b8" stroke-width="1"/>
  
  <!-- Destino-Atracao -->
  <line x1="650" y1="440" x2="650" y2="470" stroke="#6f42c1" stroke-width="2"/>
  <polygon points="654,466 646,466 650,470" fill="#6f42c1" stroke="#6f42c1" stroke-width="1"/>
  
  <!-- Pacote-PacoteHotel -->
  <line x1="400" y1="250" x2="400" y2="660" stroke="#8540c9" stroke-width="2"/>
  <polygon points="404,656 396,656 400,660" fill="#8540c9" stroke="#8540c9" stroke-width="1"/>
  
  <!-- Hotel-PacoteHotel -->
  <line x1="550" y1="360" x2="500" y2="710" stroke="#8540c9" stroke-width="2"/>
  <polygon points="504,706 496,706 500,710" fill="#8540c9" stroke="#8540c9" stroke-width="1"/>
  
  <!-- Pacote-PacoteAtracao -->
  <line x1="500" y1="200" x2="650" y2="660" stroke="#8540c9" stroke-width="2"/>
  <polygon points="654,656 646,656 650,660" fill="#8540c9" stroke="#8540c9" stroke-width="1"/>
  
  <!-- Atracao-PacoteAtracao -->
  <line x1="650" y1="630" x2="650" y2="660" stroke="#8540c9" stroke-width="2"/>
  <polygon points="654,656 646,656 650,660" fill="#8540c9" stroke="#8540c9" stroke-width="1"/>
</svg>
